<svg version="1.2" xmlns="http://www.w3.org/2000/svg" viewBox="0 0 24 24" width="24" height="24">
  <style>.a{fill:#a922fe}</style>
  <path fill-rule="evenodd" class="a" d="m9.5 18.7q0 0 0 0h-0.1q0 0-0.1 0-0.1 0-0.3 0.1c-0.3 0-0.7 0-1.1-0.1-0.8-0.1-1.2-0.7-1.6-1q0 0 0-0.1-0.1-0.1-0.3-0.3 0.1 0.3 0.3 0.6v0.1q0 0 0.1 0.1c0.1 0.3 0.3 0.5 0.4 0.7 0.2 0.2 0.5 0.4 1.1 0.5l1.8 0.3c0.3 0 0.5 0.2 0.5 0.5v1c0 0.8-0.4 1.5-1 2-0.6 0.4-1.4 0.5-2.1 0.2-4.2-1.9-7.1-6-7.1-10.9 0-6.6 5.4-11.9 12-11.9 6.6 0 12 5.3 12 11.9 0 4.9-2.9 9.1-7.1 10.9-0.8 0.4-1.6 0.2-2.2-0.2-0.5-0.5-0.9-1.2-0.9-2v-3.1c0 0-0.1-0.4-0.3-1q-0.2-0.2 0-0.5 0.1-0.2 0.4-0.2c0.3-0.1 0.9-0.2 1.5-0.4 0.6-0.2 1.1-0.5 1.4-0.8 0.5-0.6 0.7-1 0.8-1.4 0.2-0.5 0.2-1 0.2-1.8 0-1.1-0.6-2.1-0.9-2.4-0.1-0.2-0.1-0.4-0.1-0.5 0.2-0.4 0.3-1 0.4-1.6q0.1-0.4 0-0.7 0-0.1 0-0.1-0.1-0.1-0.2 0-0.3 0-0.7 0.2c-0.5 0.3-1 0.6-1.3 0.9-0.1 0.1-0.3 0.1-0.5 0-0.4-0.1-1.5-0.4-2.5-0.4-1 0-2.2 0.3-2.6 0.4-0.1 0.1-0.3 0.1-0.5 0-0.3-0.3-0.8-0.6-1.3-0.9q-0.4-0.2-0.6-0.2-0.2-0.1-0.2 0 0 0-0.1 0.1 0 0.3 0 0.7c0.1 0.6 0.3 1.2 0.4 1.6 0.1 0.1 0 0.3-0.1 0.5-0.3 0.3-0.9 1.3-0.9 2.4 0 0.8 0.1 1.3 0.2 1.8 0.1 0.4 0.4 0.8 0.8 1.4 0.3 0.3 0.9 0.6 1.5 0.8 0.5 0.2 1.1 0.3 1.5 0.4 0.2 0 0.4 0.1 0.4 0.4 0.1 0.2 0 0.4-0.2 0.5q-0.2 0.2-0.3 0.6-0.1 0.2-0.1 0.3 0 0 0 0.1c0 0.2-0.2 0.5-0.4 0.5zm0 0c0 0-0.3 0 0 0zm2.5-17.2c-6.1 0-11 4.9-11 10.9 0 4.4 2.7 8.2 6.5 9.9 0.4 0.2 0.8 0.1 1.1-0.1 0.3-0.2 0.5-0.6 0.5-1.1v-0.6l-1.3-0.1q-0.1 0-0.1 0c-0.7-0.2-1.2-0.5-1.6-0.8-0.3-0.4-0.5-0.7-0.7-1.1q0 0 0-0.1c-0.2-0.4-0.4-0.7-0.5-0.9-0.1-0.2-0.2-0.3-0.3-0.4-0.3-0.2-0.6-0.4-0.6-0.8 0-0.2 0.1-0.4 0.3-0.6 0.2-0.1 0.4-0.2 0.5-0.2q0.4 0.1 0.6 0.2 0.3 0.1 0.6 0.3 0.6 0.4 1.1 1c0.3 0.4 0.6 0.6 1 0.7 0.3 0 0.6 0 0.8 0q0-0.1 0.1-0.2 0-0.1 0.1-0.4-0.4 0-0.9-0.2c-0.6-0.2-1.4-0.6-1.9-1.1-0.5-0.6-0.8-1.2-1-1.8-0.2-0.6-0.2-1.3-0.2-2.1 0-1.3 0.5-2.3 0.9-2.9-0.1-0.4-0.2-0.9-0.3-1.5 0-0.3-0.1-0.6 0-0.9 0-0.3 0.2-0.7 0.5-0.9 0.3-0.2 0.7-0.2 1-0.2q0.4 0.1 0.9 0.4c0.4 0.2 0.9 0.5 1.3 0.8 0.6-0.2 1.6-0.4 2.6-0.4q0-0.1 0 0c1 0 2 0.2 2.6 0.4 0.3-0.3 0.8-0.6 1.3-0.8q0.4-0.3 0.9-0.4c0.3 0 0.6 0 0.9 0.2 0.4 0.2 0.5 0.6 0.5 0.9 0.1 0.3 0.1 0.6 0 0.9 0 0.6-0.2 1.1-0.3 1.5 0.4 0.6 1 1.6 1 2.9 0 0.8-0.1 1.5-0.3 2.1-0.1 0.6-0.5 1.2-1 1.8-0.5 0.5-1.2 0.9-1.9 1.1q-0.5 0.2-1 0.3c0.1 0.4 0.1 0.7 0.1 0.8v3.1c0 0.5 0.2 0.9 0.6 1.1 0.3 0.3 0.6 0.3 1 0.2 3.9-1.7 6.6-5.5 6.6-10 0-6-4.9-10.9-11-10.9z"/>
</svg>
